# xmcd
# 
# Track frame offsets:
#     150
#     19308
#     36366
#     51547
#     82746
#     102151
#     118078
#     143156
#     166680
#     180332
#     208730
# 
# Disc length: 3137
# 
# Revision: 2
# Processed by: cddbd v1.5.2PL0 Copyright (c) Steve Scherf et al.
# Submitted via: fre:ac v1.0.31
# 
DISCID=8f0c3f0b
DTITLE=Albert Lee - Heartbreak Hill
DYEAR=2003
DGENRE=Blues
TTITLE0=Heartbreak Hill
TTITLE1=Heaven Only Knows
TTITLE2=If I Needed You
TTITLE3=Born To Run
TTITLE4=Luxury Liner
TTITLE5=In My Dreams
TTITLE6=Two More Bottles Of Wine
TTITLE7=Till I Gain Control Again
TTITLE8=One Of These Days
TTITLE9=Bluebird Wine
TTITLE10=Data Track
EXTD=
EXTT0=
EXTT1=
EXTT2=
EXTT3=
EXTT4=
EXTT5=
EXTT6=
EXTT7=
EXTT8=
EXTT9=
EXTT10=
PLAYORDER=
